<svg xmlns="http://www.w3.org/2000/svg" viewBox="0 0 198.21 51.03"><defs><style>.cls-1{fill:#231f20;}.cls-2{fill:#fff;}.cls-3{fill:#f69990;}</style></defs><g id="Layer_2" data-name="Layer 2"><g id="Layer_1-2" data-name="Layer 1"><path class="cls-1" d="M0,50.48V9H33.67a7.77,7.77,0,0,1,7.81,7.75v3.6a5.23,5.23,0,0,1-3.54,4.94l-1.64.55,1.64.55a5.23,5.23,0,0,1,3.54,4.94V42.67a7.78,7.78,0,0,1-7.81,7.81ZM31.11,21.93V14.18a2.59,2.59,0,0,0-2.56-2.63H10.37v13H28.49A2.6,2.6,0,0,0,31.11,21.93Zm0,23.36V29.73a2.6,2.6,0,0,0-2.62-2.62H10.37V47.85H28.55A2.58,2.58,0,0,0,31.11,45.29Z"/><path class="cls-1" d="M81.44,50.48V34.92a2.61,2.61,0,0,0-2.63-2.62H60.69V50.48H50.32V9H84.06a7.75,7.75,0,0,1,7.75,7.69v7.93A7.77,7.77,0,0,1,88.33,31a7.84,7.84,0,0,1,3.48,6.46v13Zm0-23.37V14.18a2.61,2.61,0,0,0-2.63-2.63H60.69V29.73H78.81A2.61,2.61,0,0,0,81.44,27.11Z"/><path class="cls-1" d="M108.88,50.48a7.79,7.79,0,0,1-7.81-7.81V16.74A7.78,7.78,0,0,1,108.88,9h33.68A2.57,2.57,0,0,1,140,11.55H114.07a2.6,2.6,0,0,0-2.62,2.63V27.11h23.36a2.6,2.6,0,0,1-2.62,2.62H111.45V45.29a2.58,2.58,0,0,0,2.62,2.56H140a2.59,2.59,0,0,1,2.56,2.63Z"/><path class="cls-1" d="M145,50.48V14.18A5.22,5.22,0,0,1,150.18,9h5.18V50.48Z"/><path class="cls-2" d="M0,50.48V9H33.67a7.77,7.77,0,0,1,7.81,7.75C41.86,21,41.2,25,36.3,25.83c7.77,1,4.57,11.71,5.18,16.84a7.78,7.78,0,0,1-7.81,7.81ZM31.11,21.93c-.5-2.29,1.65-10.52-2.56-10.38H10.37v13H28.49A2.6,2.6,0,0,0,31.11,21.93Zm0,23.36c.17-24.95,2.26-16.83-20.74-18.18V47.85H28.55A2.58,2.58,0,0,0,31.11,45.29Z"/><path class="cls-2" d="M81.44,50.48c.17-25,2.26-16.84-20.75-18.18V50.48H50.32V9H84.06a7.75,7.75,0,0,1,7.75,7.69C91.64,21,93,28.57,88.33,31c5.49,2.75,2.94,14.7,3.48,19.46Zm0-23.37c.27-21.65,1.66-14.29-20.75-15.56V29.73H78.81A2.61,2.61,0,0,0,81.44,27.11Z"/><path class="cls-2" d="M108.88,50.48a7.79,7.79,0,0,1-7.81-7.81V16.74A7.78,7.78,0,0,1,108.88,9h33.68A2.57,2.57,0,0,1,140,11.55H114.07a2.6,2.6,0,0,0-2.62,2.63V27.11h23.36a2.6,2.6,0,0,1-2.62,2.62H111.45V45.29a2.58,2.58,0,0,0,2.62,2.56H140a2.59,2.59,0,0,1,2.56,2.63Z"/><path class="cls-2" d="M145,50.48V14.18c-.05-5.6,6.42-5.41,10.37-5.19V50.48Z"/><g id="Layer_2-2" data-name="Layer 2"><g id="Layer_1-2-2" data-name="Layer 1-2"><g id="Layer_2-2-2" data-name="Layer 2-2"><g id="Layer_1-2-2-2" data-name="Layer 1-2-2"><g id="Layer_2-2-2-2" data-name="Layer 2-2-2"><g id="Layer_1-2-2-2-2" data-name="Layer 1-2-2-2"><path class="cls-2" d="M179.45,43.28c-.65-3.63-1.25-7-1.84-10.4-.27-1.56-.56-3.12-.75-4.7a1.63,1.63,0,0,1,.38-1.23c1.51-1.41,3.08-2.74,4.83-4.27,0,4.34-1,8.25-1.78,12.23.15-.42.3-.84.44-1.26,2.05-6.25,4.11-12.49,6.12-18.75a11.94,11.94,0,0,0,.52-2.9c.08-1.08-.3-1.38-1.38-1.39h-1.82c-.13-.54-.26-1.08-.38-1.63a1.61,1.61,0,0,1,0-.31h14.42v1.71c-.83,0-1.66-.06-2.48,0a5.27,5.27,0,0,0-4.62,3.24c-1.21,2.7-2.3,5.46-3.38,8.21-2.67,6.89-5.3,13.79-7.95,20.68C179.72,42.67,179.64,42.85,179.45,43.28Z"/><path class="cls-3" d="M181,15.28c.25,2.16.47,4.17.73,6.18a1.3,1.3,0,0,1-.62,1.35,24.35,24.35,0,0,0-6.4,6.24,12.23,12.23,0,0,0-1.82,7.64,5.87,5.87,0,0,0,.22,1h.25l.16-1a73.73,73.73,0,0,0,2.84,7,4.33,4.33,0,0,1-.52,4.84,3.87,3.87,0,0,1-2.38,1.23,35.92,35.92,0,0,1-5.18.4c-2.46.06-4.91,0-7.44,0V48.33a23.76,23.76,0,0,0,2.77.16,28.85,28.85,0,0,0,5.34-.52c3.15-.76,4.35-3.08,3.6-6.52-.32-1.43-.83-2.82-1.14-4.25-.43-2-.74-4-1.11-6-.37,1-.78,2.18-1.2,3.33l-.24-.05c.15-.95.26-1.91.47-2.85a18.17,18.17,0,0,1,4.06-7.92c.43-.5.83-1,1.26-1.53a4.69,4.69,0,0,0,1.15-5C177.73,17,180,17.81,181,15.28Z"/><path class="cls-2" d="M172.25,9.08a20.86,20.86,0,0,0,2.23-.73c1-.44,1.08-1.27.32-2.06a2.23,2.23,0,0,1-.41-1.22c0-.62.06-1.24,0-1.86a2.63,2.63,0,0,1,.94-2.66A3,3,0,0,1,178.59.4c1.46.79,1.62,3.57.23,4.7-.51.41-1,.88-.69,1.48a2.67,2.67,0,0,0,1.27,1.19,13.24,13.24,0,0,0,2.54.53,9.7,9.7,0,0,1-2.58,8.12C177.53,13.42,175.44,10.77,172.25,9.08Z"/><path class="cls-3" d="M157.49,10.35V8.75H171l-1,1.82c.16-.07.11,0,0,0-2,.2-2.52.68-2.08,2.7a26.38,26.38,0,0,0,1.79,5.43c.86,1.87,1.32,3.54-.41,5.15-.73-1.79-1.51-3.67-2.28-5.57-.61-1.49-1.14-3-1.8-4.48-1.17-2.54-3.35-3.44-6-3.5C158.67,10.27,158.14,10.32,157.49,10.35Z"/><path class="cls-2" d="M176.18,28.13c.38,2.36.66,4.53,1.1,6.66.78,3.8,1.61,7.6,2.52,11.37a29,29,0,0,0,1.34,3.23,9.81,9.81,0,0,1,.33,1.64,2.86,2.86,0,0,1-2.05-1.8c-.71-1.87-1.56-3.69-2.42-5.49a44.42,44.42,0,0,1-3.13-9.25,4.73,4.73,0,0,1,.09-2.18A9.8,9.8,0,0,1,176.18,28.13Z"/><path class="cls-2" d="M178.59,16.57c-1,0-1.84,0-2.67,0a1.21,1.21,0,0,1-.77-.47,19.78,19.78,0,0,0-1.4-1.87c.18,1.13.36,2.26.57,3.38a1.36,1.36,0,0,1-.72,1.65,21.28,21.28,0,0,0-2.09,1.58,8.28,8.28,0,0,1,0-1.22c.36-2.3-.18-4.53-.48-6.78-.1-.8-.12-1.62-.15-2.42s.38-1,1-.69a11.31,11.31,0,0,1,1.94,1.11,18.12,18.12,0,0,1,4.44,5A4.66,4.66,0,0,1,178.59,16.57Z"/><path class="cls-3" d="M175.16,17.81a2.65,2.65,0,0,1-.16,2.76,33.77,33.77,0,0,1-2.16,2.88,19.34,19.34,0,0,0-4.26,8.78c-.06.24-.14.48-.22.72a16,16,0,0,1-1.1-1.5,1,1,0,0,1-.07-.81c1.11-2.61,2.12-5.29,3.48-7.77a11.44,11.44,0,0,1,3.06-3C174.43,19.33,175.21,18.91,175.16,17.81Z"/><path class="cls-2" d="M182.52,22.1a23.22,23.22,0,0,1-.21-10c.28-1.2.32-2.45.67-3.75.26,1.19.59,2.38.74,3.58.33,2.49.59,5,.82,7.49a1.67,1.67,0,0,1-.36,1.1A18.49,18.49,0,0,1,182.52,22.1Z"/></g></g></g></g></g></g></g></g></svg>