<svg xmlns="http://www.w3.org/2000/svg" viewBox="0 0 264.24 55.21"><defs><style>.cls-1{fill:#231f20;}.cls-2{fill:#010101;}.cls-3{fill:#d63b3c;}.cls-4{fill:#ba7a57;}.cls-5{fill:#fff;}.cls-6{fill:#f6998f;}.cls-7{fill:#f49e1e;}</style></defs><g id="Layer_2" data-name="Layer 2"><g id="Layer_1-2" data-name="Layer 1"><path class="cls-1" d="M155.74,54.6V32h18.38a4.24,4.24,0,0,1,4.26,4.23v2a2.86,2.86,0,0,1-1.93,2.7l-.9.3.9.3a2.86,2.86,0,0,1,1.93,2.7v6.19a4.25,4.25,0,0,1-4.26,4.27Zm17-15.59V34.78a1.41,1.41,0,0,0-1.4-1.43H161.4v7.09h9.89A1.42,1.42,0,0,0,172.72,39Zm0,12.76v-8.5a1.42,1.42,0,0,0-1.43-1.43H161.4V53.16h9.92A1.4,1.4,0,0,0,172.72,51.77Z"/><path class="cls-1" d="M200.2,54.6V46.1a1.43,1.43,0,0,0-1.44-1.43h-9.89V54.6h-5.66V32h18.42a4.23,4.23,0,0,1,4.23,4.2v4.33A4.21,4.21,0,0,1,204,44a4.3,4.3,0,0,1,1.9,3.53v7.1Zm0-12.76V34.78a1.43,1.43,0,0,0-1.44-1.43h-9.89v9.92h9.89A1.43,1.43,0,0,0,200.2,41.84Z"/><path class="cls-1" d="M215.18,54.6a4.25,4.25,0,0,1-4.26-4.27V36.18A4.24,4.24,0,0,1,215.18,32h18.38a1.4,1.4,0,0,1-1.4,1.4H218a1.42,1.42,0,0,0-1.43,1.43v7.06h12.75a1.42,1.42,0,0,1-1.43,1.43H216.58v8.5A1.41,1.41,0,0,0,218,53.16h14.15a1.42,1.42,0,0,1,1.4,1.44Z"/><path class="cls-1" d="M234.89,54.6V34.78A2.85,2.85,0,0,1,237.72,32h2.83V54.6Z"/><g id="Layer_2-2" data-name="Layer 2"><g id="Layer_1-2-2" data-name="Layer 1-2"><path class="cls-2" d="M253.82,50.88c-.36-2-.7-3.85-1-5.71-.16-.85-.31-1.71-.42-2.57a.9.9,0,0,1,.21-.68c.84-.77,1.71-1.5,2.69-2.34a32.41,32.41,0,0,1-1,6.71c.09-.24.17-.46.25-.7q1.71-5.13,3.4-10.28a6.65,6.65,0,0,0,.29-1.59c0-.59-.17-.76-.77-.76h-1l-.21-.9a.43.43,0,0,1,0-.16h8v.93c-.46,0-.92,0-1.37,0a2.92,2.92,0,0,0-2.57,1.78c-.67,1.48-1.28,3-1.88,4.5-1.48,3.78-2.94,7.56-4.42,11.34C254,50.55,253.92,50.64,253.82,50.88Z"/><path class="cls-3" d="M254.67,35.52c.14,1.18.27,2.29.41,3.39a.72.72,0,0,1-.34.74,13.33,13.33,0,0,0-3.56,3.42,6.62,6.62,0,0,0-1,4.19,3.5,3.5,0,0,0,.13.56h.14l.08-.56a41.26,41.26,0,0,0,1.59,3.85,2.36,2.36,0,0,1-.3,2.66,2.13,2.13,0,0,1-1.31.67,20,20,0,0,1-2.89.22c-1.36,0-2.73,0-4.13,0v-1a13.38,13.38,0,0,0,1.54.09,17.07,17.07,0,0,0,3-.29c1.76-.41,2.43-1.69,2-3.58-.18-.78-.46-1.54-.64-2.33-.23-1.08-.41-2.17-.61-3.27-.21.56-.44,1.2-.67,1.83l-.13,0c.08-.52.14-1,.26-1.56a9.79,9.79,0,0,1,2.26-4.35c.24-.27.46-.56.7-.84a2.54,2.54,0,0,0,.63-2.75C252.86,36.45,254.13,36.91,254.67,35.52Z"/><path class="cls-2" d="M249.82,32.12a12.73,12.73,0,0,0,1.23-.4c.57-.24.6-.7.18-1.13a1.14,1.14,0,0,1-.22-.67c0-.34,0-.68,0-1a1.41,1.41,0,0,1,.52-1.45,1.58,1.58,0,0,1,1.93,2.49c-.29.23-.55.48-.38.81a1.4,1.4,0,0,0,.7.66,7.32,7.32,0,0,0,1.41.29,5.27,5.27,0,0,1-1.43,4.45A10.34,10.34,0,0,0,249.82,32.12Z"/><path class="cls-3" d="M241.61,32.81v-.87h7.5l-.58,1c.09,0,.06,0,0,0-1.13.11-1.4.37-1.16,1.48a14.09,14.09,0,0,0,1,3c.48,1,.74,1.94-.22,2.83-.41-1-.85-2-1.27-3.06-.34-.82-.64-1.66-1-2.46a3.41,3.41,0,0,0-3.33-1.92C242.27,32.77,242,32.8,241.61,32.81Z"/><path class="cls-2" d="M252,42.57c.21,1.29.37,2.48.61,3.65.44,2.09.9,4.17,1.4,6.24a15.89,15.89,0,0,0,.75,1.77,5.27,5.27,0,0,1,.18.9,1.59,1.59,0,0,1-1.14-1c-.39-1-.87-2-1.35-3a23.89,23.89,0,0,1-1.73-5.07,2.56,2.56,0,0,1,.05-1.2A5.26,5.26,0,0,1,252,42.57Z"/><path class="cls-2" d="M253.34,36.22c-.56,0-1,0-1.49,0a.65.65,0,0,1-.42-.26,10.61,10.61,0,0,0-.78-1c.1.62.2,1.24.32,1.85a.75.75,0,0,1-.4.9,13,13,0,0,0-1.17.87c0-.22,0-.45,0-.67a12.92,12.92,0,0,0-.26-3.72,11.73,11.73,0,0,1-.08-1.33c0-.41.21-.55.57-.38a7.2,7.2,0,0,1,1.08.62,10.13,10.13,0,0,1,2.46,2.76A3.29,3.29,0,0,1,253.34,36.22Z"/><path class="cls-3" d="M251.43,36.91a1.44,1.44,0,0,1-.08,1.51A18.85,18.85,0,0,1,250.14,40a10.71,10.71,0,0,0-2.37,4.82,2.72,2.72,0,0,1-.12.4,9.68,9.68,0,0,1-.61-.82.59.59,0,0,1,0-.45,46.72,46.72,0,0,1,1.94-4.26,6.31,6.31,0,0,1,1.7-1.63C251,37.74,251.46,37.51,251.43,36.91Z"/><path class="cls-2" d="M255.53,39.26a12.6,12.6,0,0,1-.12-5.49c.15-.66.18-1.34.37-2.05.14.65.33,1.3.41,2,.19,1.36.33,2.73.46,4.11a.94.94,0,0,1-.2.6A11.45,11.45,0,0,1,255.53,39.26Z"/></g></g><path class="cls-1" d="M0,31.4V8.86H18.3a4.22,4.22,0,0,1,4.24,4.21v2a2.84,2.84,0,0,1-1.92,2.68l-.9.3.9.3A2.85,2.85,0,0,1,22.54,21v6.16A4.23,4.23,0,0,1,18.3,31.4ZM16.9,15.89V11.68a1.41,1.41,0,0,0-1.39-1.42H5.63v7.06h9.85A1.41,1.41,0,0,0,16.9,15.89Zm0,12.7V20.13a1.41,1.41,0,0,0-1.42-1.42H5.63V30h9.88A1.4,1.4,0,0,0,16.9,28.59Z"/><path class="cls-1" d="M44.25,31.4V23a1.41,1.41,0,0,0-1.43-1.42H33V31.4H27.35V8.86H45.68A4.2,4.2,0,0,1,49.88,13v4.31A4.2,4.2,0,0,1,48,20.83a4.26,4.26,0,0,1,1.88,3.51V31.4Zm0-12.69v-7a1.41,1.41,0,0,0-1.43-1.42H33v9.87h9.84A1.41,1.41,0,0,0,44.25,18.71Z"/><path class="cls-1" d="M59.17,31.4a4.23,4.23,0,0,1-4.25-4.24V13.07a4.23,4.23,0,0,1,4.25-4.21H77.46a1.4,1.4,0,0,1-1.39,1.4H62a1.41,1.41,0,0,0-1.42,1.42v7H73.25a1.41,1.41,0,0,1-1.42,1.42H60.56v8.46A1.41,1.41,0,0,0,62,30H76.07a1.41,1.41,0,0,1,1.39,1.42Z"/><path class="cls-1" d="M78.79,31.4V11.68a2.84,2.84,0,0,1,2.82-2.82h2.81V31.4Z"/><path class="cls-1" d="M93.77,31.4a4.22,4.22,0,0,1-4.21-4.24V13.07a4.22,4.22,0,0,1,4.21-4.21h14.09a4.22,4.22,0,0,1,4.24,4.21V27.16a4.23,4.23,0,0,1-4.24,4.24Zm12.69-2.81V11.68A1.41,1.41,0,0,0,105,10.26H96.59a1.4,1.4,0,0,0-1.39,1.42V28.59A1.39,1.39,0,0,0,96.59,30H105A1.4,1.4,0,0,0,106.46,28.59Z"/><g id="Layer_2-3" data-name="Layer 2"><g id="Layer_1-2-3" data-name="Layer 1-2"><path class="cls-4" d="M115.16,28.36a3.32,3.32,0,0,1-5.89-3,1.54,1.54,0,0,0-.69-2c-1.07-.63-2.15-1.25-3.23-1.87-.55-.3-1.13-.56-1.68-.88a5.09,5.09,0,0,0-2.36-.49,4,4,0,0,1-2.64-1.26c-3.41-3.3-6.79-6.6-10-10.13-.78-.87-1.54-1.76-2.3-2.64L86.47,6c1.12.73,2.25,1.44,3.36,2.18,2.79,1.87,5.45,3.92,8,6a143.29,143.29,0,0,0,11.44,8.63,2.66,2.66,0,0,0,2.31.44,3.29,3.29,0,0,1,4,3.92.45.45,0,0,0,.25.57,2.19,2.19,0,0,0,2.16.1c.27-.13.52-.19.7.1s0,.52-.4.66a3,3,0,0,1-3-.23A1.11,1.11,0,0,0,115.16,28.36Zm-1.51.44a2.59,2.59,0,0,0-2.59-4.49h0a2.59,2.59,0,1,0,2.59,4.49ZM102.4,19.94l0-.1c-.68-.17-1.35-.32-2-.5a1.22,1.22,0,0,1-.54-.28c-1.67-1.57-3.32-3.14-5-4.72l-3-2.91a.24.24,0,0,0,.06.2l7.92,7.76a.55.55,0,0,0,.27.17c.77.14,1.54.26,2.32.38Zm9.76,9.58a3.36,3.36,0,0,1-2.75-3.42,2.65,2.65,0,0,0,2.75,3.42Zm3.16-2.83a2.81,2.81,0,0,0-2.32-3,3.51,3.51,0,0,1,2.32,3Zm-17-10.35a.69.69,0,0,0,.17,1,.57.57,0,0,0,.82,0l-1-1Zm1.2.81c.17-.4.17-.72-.14-1a.7.7,0,0,0-.88,0l1,1Zm3.8,2.83-.07.12,1.62.91.06-.1Zm13.94,8.6c.78,0,1.17-.14,1.14-.46Zm-6.9-4.6-1.07-.52c.34.55.51.64,1.07.52Z"/><path class="cls-4" d="M100.49,15.28c-1-.77-2-1.53-3-2.31a.72.72,0,0,1-.24-.45Q96.55,6.33,95.86.12a.41.41,0,0,1,0-.12,1.31,1.31,0,0,1,.88.6A10.09,10.09,0,0,1,98.3,4a76.5,76.5,0,0,1,2.07,9.82c.07.44.13.88.19,1.32C100.56,15.19,100.53,15.21,100.49,15.28Z"/><path class="cls-4" d="M97.74,19c.43.41.76.71,1.09,1,.63.6.63.6,1.87.79-.21.44-.44.87-.61,1.32a4.06,4.06,0,0,0-.31,1.12c-.09,1.69-.15,3.38-.2,5.07a2.59,2.59,0,0,0,.1.83,1.35,1.35,0,0,0,1.26,1,3.28,3.28,0,0,1,2.77,2.62,3.33,3.33,0,1,1-5.92-1.34,1.28,1.28,0,0,1,.24-.29A2.12,2.12,0,0,0,98.79,29c-.27-2.14-.55-4.27-.78-6.41C97.88,21.43,97.83,20.28,97.74,19Zm4.92,13.07a2.59,2.59,0,1,0-.84,3.54A2.59,2.59,0,0,0,102.66,32.09Zm-1.12-1.42a3.34,3.34,0,0,1,1.52,4.17,2.66,2.66,0,0,0-1.52-4.18Zm-2.05-8.59-.46.76-.45-.18c.47.31.41.78.44,1.21s0,.81.07,1.21c0,.78.1,1.56.16,2.34.06-.63,0-1.26,0-1.89C99.33,24.39,98.89,23.21,99.49,22.08Zm-.42,14a3.45,3.45,0,0,1-1.46-3.41A2.76,2.76,0,0,0,99.07,36Zm.12-5.62c.4-.39.41-.6.09-1.16Z"/></g></g><rect class="cls-1" x="95.3" y="8.86" width="8.8" height="1.38"/><rect class="cls-1" x="97.07" y="29.98" width="7.45" height="1.42"/><path class="cls-1" d="M117.9,53.12a7.7,7.7,0,0,1-2.14-5.78,12.82,12.82,0,0,1,2.34-7.29,20.77,20.77,0,0,1,6.69-6,23.75,23.75,0,0,1-.86-5.25A10,10,0,0,1,125.12,24a9.25,9.25,0,0,1,3.23-3.48,8.36,8.36,0,0,1,4.51-1.28,5.36,5.36,0,0,1,3.66,1.16,4.29,4.29,0,0,1,1.34,3.43,8.15,8.15,0,0,1-1.92,5A25.57,25.57,0,0,1,130.09,34a12,12,0,0,0,.76,2.42,11,11,0,0,1,3.93-2,22.81,22.81,0,0,1,5.85-.6l4.19,0a7.57,7.57,0,0,0,3.89-.83c.91-.56,1.36-1.66,1.36-3.31a4.47,4.47,0,0,0-.23-1.61,4,4,0,0,0-.53-.94,1.09,1.09,0,0,1-.3-.58,2.67,2.67,0,0,1,.71-1.41,9.69,9.69,0,0,1,1.59-1.61,2.59,2.59,0,0,1,1.38-.71.7.7,0,0,1,.51.3,5,5,0,0,1,.7,1.69,10.2,10.2,0,0,1,.21,2.2,9.91,9.91,0,0,1-1.59,5.55A10.88,10.88,0,0,1,148,36.37a15.31,15.31,0,0,1-6.64,1.39h-.25a24.73,24.73,0,0,1-5.35,10.34,11.07,11.07,0,0,0,1.39,2.09,1.63,1.63,0,0,0,1.18.63c.81,0,1.74-.63,2.78-1.91.37-.51.67-.76.91-.76s.35.24.35.71a3.73,3.73,0,0,1-.05.65,7.47,7.47,0,0,1-2.15,3.94,5.11,5.11,0,0,1-3.65,1.76q-2.22,0-4.44-3.33a13.91,13.91,0,0,1-8.63,3.33A7.63,7.63,0,0,1,117.9,53.12Zm10.6-2a10.12,10.12,0,0,0,2.35-1.52c-1.11-2.25-2.07-4.33-2.86-6.23s-1.59-4.11-2.39-6.63a10.83,10.83,0,0,0-3,3.78,11,11,0,0,0-1.09,5A7.57,7.57,0,0,0,122.65,50a4,4,0,0,0,3.45,1.61A6,6,0,0,0,128.5,51.08Zm4.62-25.74a4.48,4.48,0,0,0-.58-2.29,1.84,1.84,0,0,0-3.33.15,7,7,0,0,0-.58,3.15,23.34,23.34,0,0,0,.7,4.95C131.85,29.45,133.12,27.46,133.12,25.34ZM136,41.06a19.73,19.73,0,0,0,.88-3.46h-.25a7.72,7.72,0,0,0-4.8,1.21,33.82,33.82,0,0,0,1.87,4.8,7.56,7.56,0,0,0,.33.76,4.09,4.09,0,0,1,.28.7A33.31,33.31,0,0,0,136,41.06Z"/><path class="cls-5" d="M155.74,54.6V32h18.38a4.24,4.24,0,0,1,4.26,4.23v2a2.86,2.86,0,0,1-1.93,2.7l-.9.3.9.3a2.86,2.86,0,0,1,1.93,2.7v6.19a4.25,4.25,0,0,1-4.26,4.27Zm17-15.59V34.78a1.41,1.41,0,0,0-1.4-1.43H161.4v7.09h9.89A1.42,1.42,0,0,0,172.72,39Zm0,12.76v-8.5a1.42,1.42,0,0,0-1.43-1.43H161.4V53.16h9.92A1.4,1.4,0,0,0,172.72,51.77Z"/><path class="cls-5" d="M200.2,54.6V46.1a1.43,1.43,0,0,0-1.44-1.43h-9.89V54.6h-5.66V32h18.42a4.23,4.23,0,0,1,4.23,4.2v4.33A4.21,4.21,0,0,1,204,44a4.3,4.3,0,0,1,1.9,3.53v7.1Zm0-12.76V34.78a1.43,1.43,0,0,0-1.44-1.43h-9.89v9.92h9.89A1.43,1.43,0,0,0,200.2,41.84Z"/><path class="cls-5" d="M215.18,54.6a4.25,4.25,0,0,1-4.26-4.27V36.18A4.24,4.24,0,0,1,215.18,32h18.38a1.4,1.4,0,0,1-1.4,1.4H218a1.42,1.42,0,0,0-1.43,1.43v7.06h12.75a1.42,1.42,0,0,1-1.43,1.43H216.58v8.5A1.41,1.41,0,0,0,218,53.16h14.15a1.42,1.42,0,0,1,1.4,1.44Z"/><path class="cls-5" d="M234.89,54.6V34.78A2.85,2.85,0,0,1,237.72,32h2.83V54.6Z"/><g id="Layer_1-2-4" data-name="Layer 1-2"><path class="cls-5" d="M253.82,50.88c-.36-2-.7-3.85-1-5.71-.16-.85-.31-1.71-.42-2.57a.9.9,0,0,1,.21-.68c.84-.77,1.71-1.5,2.69-2.34a32.41,32.41,0,0,1-1,6.71c.09-.24.17-.46.25-.7q1.71-5.13,3.4-10.28a6.65,6.65,0,0,0,.29-1.59c0-.59-.17-.76-.77-.76h-1l-.21-.9a.43.43,0,0,1,0-.16h8v.93c-.46,0-.92,0-1.37,0a2.92,2.92,0,0,0-2.57,1.78c-.67,1.48-1.28,3-1.88,4.5-1.48,3.78-2.94,7.56-4.42,11.34C254,50.55,253.92,50.64,253.82,50.88Z"/><path class="cls-6" d="M254.67,35.52c.14,1.18.27,2.29.41,3.39a.72.72,0,0,1-.34.74,13.33,13.33,0,0,0-3.56,3.42,6.62,6.62,0,0,0-1,4.19,3.5,3.5,0,0,0,.13.56h.14l.08-.56a41.26,41.26,0,0,0,1.59,3.85,2.36,2.36,0,0,1-.3,2.66,2.13,2.13,0,0,1-1.31.67,20,20,0,0,1-2.89.22c-1.36,0-2.73,0-4.13,0v-1a13.38,13.38,0,0,0,1.54.09,17.07,17.07,0,0,0,3-.29c1.76-.41,2.43-1.69,2-3.58-.18-.78-.46-1.54-.64-2.33-.23-1.08-.41-2.17-.61-3.27-.21.56-.44,1.2-.67,1.83l-.13,0c.08-.52.14-1,.26-1.56a9.79,9.79,0,0,1,2.26-4.35c.24-.27.46-.56.7-.84a2.54,2.54,0,0,0,.63-2.75C252.86,36.45,254.13,36.91,254.67,35.52Z"/><path class="cls-5" d="M249.82,32.12a12.73,12.73,0,0,0,1.23-.4c.57-.24.6-.7.18-1.13a1.14,1.14,0,0,1-.22-.67c0-.34,0-.68,0-1a1.41,1.41,0,0,1,.52-1.45,1.58,1.58,0,0,1,1.93,2.49c-.29.23-.55.48-.38.81a1.4,1.4,0,0,0,.7.66,7.32,7.32,0,0,0,1.41.29,5.27,5.27,0,0,1-1.43,4.45A10.34,10.34,0,0,0,249.82,32.12Z"/><path class="cls-6" d="M241.61,32.81v-.87h7.5l-.58,1c.09,0,.06,0,0,0-1.13.11-1.4.37-1.16,1.48a14.09,14.09,0,0,0,1,3c.48,1,.74,1.94-.22,2.83-.41-1-.85-2-1.27-3.06-.34-.82-.64-1.66-1-2.46a3.41,3.41,0,0,0-3.33-1.92C242.27,32.77,242,32.8,241.61,32.81Z"/><path class="cls-5" d="M252,42.57c.21,1.29.37,2.48.61,3.65.44,2.09.9,4.17,1.4,6.24a15.89,15.89,0,0,0,.75,1.77,5.27,5.27,0,0,1,.18.9,1.59,1.59,0,0,1-1.14-1c-.39-1-.87-2-1.35-3a23.89,23.89,0,0,1-1.73-5.07,2.56,2.56,0,0,1,.05-1.2A5.26,5.26,0,0,1,252,42.57Z"/><path class="cls-5" d="M253.34,36.22c-.56,0-1,0-1.49,0a.65.65,0,0,1-.42-.26,10.61,10.61,0,0,0-.78-1c.1.62.2,1.24.32,1.85a.75.75,0,0,1-.4.9,13,13,0,0,0-1.17.87c0-.22,0-.45,0-.67a12.92,12.92,0,0,0-.26-3.72,11.73,11.73,0,0,1-.08-1.33c0-.41.21-.55.57-.38a7.2,7.2,0,0,1,1.08.62,10.13,10.13,0,0,1,2.46,2.76A3.29,3.29,0,0,1,253.34,36.22Z"/><path class="cls-6" d="M251.43,36.91a1.44,1.44,0,0,1-.08,1.51A18.85,18.85,0,0,1,250.14,40a10.71,10.71,0,0,0-2.37,4.82,2.72,2.72,0,0,1-.12.4,9.68,9.68,0,0,1-.61-.82.59.59,0,0,1,0-.45,46.72,46.72,0,0,1,1.94-4.26,6.31,6.31,0,0,1,1.7-1.63C251,37.74,251.46,37.51,251.43,36.91Z"/><path class="cls-5" d="M255.53,39.26a12.6,12.6,0,0,1-.12-5.49c.15-.66.18-1.34.37-2.05.14.65.33,1.3.41,2,.19,1.36.33,2.73.46,4.11a.94.94,0,0,1-.2.6A11.45,11.45,0,0,1,255.53,39.26Z"/></g><path class="cls-5" d="M0,31.4V8.86H18.3a4.22,4.22,0,0,1,4.24,4.21v2a2.84,2.84,0,0,1-1.92,2.68l-.9.3.9.3A2.85,2.85,0,0,1,22.54,21v6.16A4.23,4.23,0,0,1,18.3,31.4ZM16.9,15.89V11.68a1.41,1.41,0,0,0-1.39-1.42H5.63v7.06h9.85A1.41,1.41,0,0,0,16.9,15.89Zm0,12.7V20.13a1.41,1.41,0,0,0-1.42-1.42H5.63V30h9.88A1.4,1.4,0,0,0,16.9,28.59Z"/><path class="cls-5" d="M44.25,31.4V23a1.41,1.41,0,0,0-1.43-1.42H33V31.4H27.35V8.86H45.68A4.2,4.2,0,0,1,49.88,13v4.31A4.2,4.2,0,0,1,48,20.83a4.26,4.26,0,0,1,1.88,3.51V31.4Zm0-12.69v-7a1.41,1.41,0,0,0-1.43-1.42H33v9.87h9.84A1.41,1.41,0,0,0,44.25,18.71Z"/><path class="cls-5" d="M59.17,31.4a4.23,4.23,0,0,1-4.25-4.24V13.07a4.23,4.23,0,0,1,4.25-4.21H77.46a1.4,1.4,0,0,1-1.39,1.4H62a1.41,1.41,0,0,0-1.42,1.42v7H73.25a1.41,1.41,0,0,1-1.42,1.42H60.56v8.46A1.41,1.41,0,0,0,62,30H76.07a1.41,1.41,0,0,1,1.39,1.42Z"/><path class="cls-5" d="M78.79,31.4V11.68a2.84,2.84,0,0,1,2.82-2.82h2.81V31.4Z"/><path class="cls-5" d="M93.77,31.4a4.22,4.22,0,0,1-4.21-4.24V13.07a4.22,4.22,0,0,1,4.21-4.21h14.09a4.22,4.22,0,0,1,4.24,4.21V27.16a4.23,4.23,0,0,1-4.24,4.24Zm12.69-2.81V11.68A1.41,1.41,0,0,0,105,10.26H96.59a1.4,1.4,0,0,0-1.39,1.42V28.59A1.39,1.39,0,0,0,96.59,30H105A1.4,1.4,0,0,0,106.46,28.59Z"/><g id="Layer_2-4" data-name="Layer 2"><g id="Layer_1-2-5" data-name="Layer 1-2"><path class="cls-7" d="M115.16,28.36a3.32,3.32,0,0,1-5.89-3,1.54,1.54,0,0,0-.69-2c-1.07-.63-2.15-1.25-3.23-1.87-.55-.3-1.13-.56-1.68-.88a5.09,5.09,0,0,0-2.36-.49,4,4,0,0,1-2.64-1.26c-3.41-3.3-6.79-6.6-10-10.13-.78-.87-1.54-1.76-2.3-2.64L86.47,6c1.12.73,2.25,1.44,3.36,2.18,2.79,1.87,5.45,3.92,8,6a143.29,143.29,0,0,0,11.44,8.63,2.66,2.66,0,0,0,2.31.44,3.29,3.29,0,0,1,4,3.92.45.45,0,0,0,.25.57,2.19,2.19,0,0,0,2.16.1c.27-.13.52-.19.7.1s0,.52-.4.66a3,3,0,0,1-3-.23A1.11,1.11,0,0,0,115.16,28.36Zm-1.51.44a2.59,2.59,0,0,0-2.59-4.49h0a2.59,2.59,0,1,0,2.59,4.49ZM102.4,19.94l0-.1c-.68-.17-1.35-.32-2-.5a1.22,1.22,0,0,1-.54-.28c-1.67-1.57-3.32-3.14-5-4.72l-3-2.91a.24.24,0,0,0,.06.2l7.92,7.76a.55.55,0,0,0,.27.17c.77.14,1.54.26,2.32.38Zm9.76,9.58a3.36,3.36,0,0,1-2.75-3.42,2.65,2.65,0,0,0,2.75,3.42Zm3.16-2.83a2.81,2.81,0,0,0-2.32-3,3.51,3.51,0,0,1,2.32,3Zm-17-10.35a.69.69,0,0,0,.17,1,.57.57,0,0,0,.82,0l-1-1Zm1.2.81c.17-.4.17-.72-.14-1a.7.7,0,0,0-.88,0l1,1Zm3.8,2.83-.07.12,1.62.91.06-.1Zm13.94,8.6c.78,0,1.17-.14,1.14-.46Zm-6.9-4.6-1.07-.52c.34.55.51.64,1.07.52Z"/><path class="cls-7" d="M100.49,15.28c-1-.77-2-1.53-3-2.31a.72.72,0,0,1-.24-.45Q96.55,6.33,95.86.12a.41.41,0,0,1,0-.12,1.31,1.31,0,0,1,.88.6A10.09,10.09,0,0,1,98.3,4a76.5,76.5,0,0,1,2.07,9.82c.07.44.13.88.19,1.32C100.56,15.19,100.53,15.21,100.49,15.28Z"/><path class="cls-7" d="M97.74,19c.43.41.76.71,1.09,1,.63.6.63.6,1.87.79-.21.44-.44.87-.61,1.32a4.06,4.06,0,0,0-.31,1.12c-.09,1.69-.15,3.38-.2,5.07a2.59,2.59,0,0,0,.1.83,1.35,1.35,0,0,0,1.26,1,3.28,3.28,0,0,1,2.77,2.62,3.33,3.33,0,1,1-5.92-1.34,1.28,1.28,0,0,1,.24-.29A2.12,2.12,0,0,0,98.79,29c-.27-2.14-.55-4.27-.78-6.41C97.88,21.43,97.83,20.28,97.74,19Zm4.92,13.07a2.59,2.59,0,1,0-.84,3.54A2.59,2.59,0,0,0,102.66,32.09Zm-1.12-1.42a3.34,3.34,0,0,1,1.52,4.17,2.66,2.66,0,0,0-1.52-4.18Zm-2.05-8.59-.46.76-.45-.18c.47.31.41.78.44,1.21s0,.81.07,1.21c0,.78.1,1.56.16,2.34.06-.63,0-1.26,0-1.89C99.33,24.39,98.89,23.21,99.49,22.08Zm-.42,14a3.45,3.45,0,0,1-1.46-3.41A2.76,2.76,0,0,0,99.07,36Zm.12-5.62c.4-.39.41-.6.09-1.16Z"/></g></g><rect class="cls-5" x="95.3" y="8.86" width="8.8" height="1.38"/><rect class="cls-5" x="97.07" y="29.98" width="7.45" height="1.42"/><path class="cls-5" d="M117.9,53.12a7.7,7.7,0,0,1-2.14-5.78,12.82,12.82,0,0,1,2.34-7.29,20.77,20.77,0,0,1,6.69-6,23.75,23.75,0,0,1-.86-5.25A10,10,0,0,1,125.12,24a9.25,9.25,0,0,1,3.23-3.48,8.36,8.36,0,0,1,4.51-1.28,5.36,5.36,0,0,1,3.66,1.16,4.29,4.29,0,0,1,1.34,3.43,8.15,8.15,0,0,1-1.92,5A25.57,25.57,0,0,1,130.09,34a12,12,0,0,0,.76,2.42,11,11,0,0,1,3.93-2,22.81,22.81,0,0,1,5.85-.6l4.19,0a7.57,7.57,0,0,0,3.89-.83c.91-.56,1.36-1.66,1.36-3.31a4.47,4.47,0,0,0-.23-1.61,4,4,0,0,0-.53-.94,1.09,1.09,0,0,1-.3-.58,2.67,2.67,0,0,1,.71-1.41,9.69,9.69,0,0,1,1.59-1.61,2.59,2.59,0,0,1,1.38-.71.7.7,0,0,1,.51.3,5,5,0,0,1,.7,1.69,10.2,10.2,0,0,1,.21,2.2,9.91,9.91,0,0,1-1.59,5.55A10.88,10.88,0,0,1,148,36.37a15.31,15.31,0,0,1-6.64,1.39h-.25a24.73,24.73,0,0,1-5.35,10.34,11.07,11.07,0,0,0,1.39,2.09,1.63,1.63,0,0,0,1.18.63c.81,0,1.74-.63,2.78-1.91.37-.51.67-.76.91-.76s.35.24.35.71a3.73,3.73,0,0,1-.05.65,7.47,7.47,0,0,1-2.15,3.94,5.11,5.11,0,0,1-3.65,1.76q-2.22,0-4.44-3.33a13.91,13.91,0,0,1-8.63,3.33A7.63,7.63,0,0,1,117.9,53.12Zm10.6-2a10.12,10.12,0,0,0,2.35-1.52c-1.11-2.25-2.07-4.33-2.86-6.23s-1.59-4.11-2.39-6.63a10.83,10.83,0,0,0-3,3.78,11,11,0,0,0-1.09,5A7.57,7.57,0,0,0,122.65,50a4,4,0,0,0,3.45,1.61A6,6,0,0,0,128.5,51.08Zm4.62-25.74a4.48,4.48,0,0,0-.58-2.29,1.84,1.84,0,0,0-3.33.15,7,7,0,0,0-.58,3.15,23.34,23.34,0,0,0,.7,4.95C131.85,29.45,133.12,27.46,133.12,25.34ZM136,41.06a19.73,19.73,0,0,0,.88-3.46h-.25a7.72,7.72,0,0,0-4.8,1.21,33.82,33.82,0,0,0,1.87,4.8,7.56,7.56,0,0,0,.33.76,4.09,4.09,0,0,1,.28.7A33.31,33.31,0,0,0,136,41.06Z"/></g></g></svg>