<svg xmlns="http://www.w3.org/2000/svg" viewBox="0 0 214.98 66.53"><defs><style>.cls-1{fill:#fff;}.cls-2{fill:#f49e1e;}</style></defs><g id="Layer_2" data-name="Layer 2"><g id="Layer_1-2" data-name="Layer 1"><path class="cls-1" d="M0,56.84V16H33.12a7.64,7.64,0,0,1,7.68,7.62V27.2a5.16,5.16,0,0,1-3.48,4.86l-1.62.54,1.62.54A5.16,5.16,0,0,1,40.8,38V49.16a7.66,7.66,0,0,1-7.68,7.68ZM30.6,28.76V21.14a2.55,2.55,0,0,0-2.52-2.58H10.2V31.34H28A2.56,2.56,0,0,0,30.6,28.76Zm0,23V36.44A2.56,2.56,0,0,0,28,33.86H10.2v20.4H28.08A2.54,2.54,0,0,0,30.6,51.74Z"/><path class="cls-1" d="M80.1,56.84V41.54A2.56,2.56,0,0,0,77.52,39H59.7V56.84H49.5V16H82.68A7.62,7.62,0,0,1,90.3,23.6v7.8a7.6,7.6,0,0,1-3.42,6.3,7.71,7.71,0,0,1,3.42,6.36V56.84Zm0-23V21.14a2.56,2.56,0,0,0-2.58-2.58H59.7V36.44H77.52A2.56,2.56,0,0,0,80.1,33.86Z"/><path class="cls-1" d="M107.1,56.84a7.66,7.66,0,0,1-7.68-7.68V23.66A7.64,7.64,0,0,1,107.1,16h33.12a2.54,2.54,0,0,1-2.52,2.52H112.2a2.56,2.56,0,0,0-2.58,2.58V33.86h23A2.56,2.56,0,0,1,130,36.44h-20.4v15.3a2.55,2.55,0,0,0,2.58,2.52h25.5a2.55,2.55,0,0,1,2.52,2.58Z"/><path class="cls-1" d="M142.62,56.84V21.14a5.13,5.13,0,0,1,5.1-5.1h5.1v40.8Z"/><path class="cls-1" d="M169.74,56.84a7.64,7.64,0,0,1-7.62-7.68V23.66A7.63,7.63,0,0,1,169.74,16h25.49a7.64,7.64,0,0,1,7.68,7.62v25.5a7.66,7.66,0,0,1-7.68,7.68Zm23-5.1V21.14a2.55,2.55,0,0,0-2.58-2.58h-15.3a2.55,2.55,0,0,0-2.51,2.58v30.6a2.53,2.53,0,0,0,2.51,2.52h15.3A2.54,2.54,0,0,0,192.71,51.74Z"/><g id="Layer_2-2" data-name="Layer 2"><g id="Layer_1-2-2" data-name="Layer 1-2"><path class="cls-2" d="M208.46,51.34a6,6,0,0,1-10.67-5.41,2.81,2.81,0,0,0-1.24-3.62c-2-1.13-3.9-2.26-5.86-3.37-1-.55-2-1-3-1.6a9.23,9.23,0,0,0-4.27-.88,7.14,7.14,0,0,1-4.79-2.29c-6.17-6-12.29-11.94-18-18.33-1.41-1.57-2.79-3.18-4.17-4.78l.12-.14c2,1.31,4.07,2.6,6.08,3.95,5,3.38,9.86,7.09,14.55,10.94a258,258,0,0,0,20.71,15.62,4.76,4.76,0,0,0,4.18.8,6,6,0,0,1,7.21,7.09.79.79,0,0,0,.44,1,4,4,0,0,0,3.92.19c.49-.23.93-.34,1.26.18s-.06.93-.71,1.2a5.44,5.44,0,0,1-5.36-.43A2.63,2.63,0,0,0,208.46,51.34Zm-2.74.79A4.69,4.69,0,1,0,201,44h0a4.69,4.69,0,1,0,4.68,8.12Zm-20.36-16,.06-.19c-1.23-.29-2.45-.57-3.67-.9a2.23,2.23,0,0,1-1-.49c-3-2.85-6-5.7-9-8.55l-5.53-5.27a.46.46,0,0,0,.11.37l14.33,14a1,1,0,0,0,.5.31c1.39.24,2.79.46,4.19.68ZM203,53.43c-3.18-.73-4.76-2.8-5-6.18-.82,3.43,1.35,6.2,5,6.18Zm5.72-5.11a5.09,5.09,0,0,0-4.21-5.47,6.34,6.34,0,0,1,4.21,5.46ZM178,29.58a1.27,1.27,0,0,0,.3,1.74,1.06,1.06,0,0,0,1.5,0L178,29.57ZM180.19,31c.3-.73.3-1.3-.27-1.73a1.26,1.26,0,0,0-1.58-.06L180.19,31Zm6.86,5.12-.12.22L189.87,38l.1-.18Zm25.24,15.58c1.41,0,2.12-.26,2.06-.84ZM199.8,43.4l-1.93-.94c.61,1,.93,1.17,1.93.94Z"/><path class="cls-2" d="M181.91,27.65c-1.81-1.39-3.62-2.77-5.41-4.17a1.35,1.35,0,0,1-.43-.81Q174.77,11.43,173.52.21s0-.1,0-.21a2.39,2.39,0,0,1,1.6,1.09,18.42,18.42,0,0,1,2.77,6.2,141.83,141.83,0,0,1,3.74,17.78c.13.8.24,1.59.35,2.39C182,27.49,182,27.54,181.91,27.65Z"/><path class="cls-2" d="M176.92,34.44l2,1.82c1.15,1.08,1.15,1.08,3.38,1.42-.38.81-.79,1.58-1.1,2.4a6.81,6.81,0,0,0-.55,2c-.17,3.06-.27,6.12-.37,9.18a4.75,4.75,0,0,0,.18,1.5,2.46,2.46,0,0,0,2.28,1.8,5.92,5.92,0,0,1,5,4.74A6,6,0,1,1,177,56.9a2.7,2.7,0,0,1,.43-.53,3.84,3.84,0,0,0,1.38-3.94c-.48-3.86-1-7.72-1.41-11.59C177.18,38.78,177.09,36.71,176.92,34.44Zm8.9,23.65a4.69,4.69,0,1,0-1.51,6.4A4.66,4.66,0,0,0,185.82,58.09Zm-2-2.58c2.76,1.77,3.77,4.2,2.76,7.55,1.87-3,.82-6.49-2.75-7.55ZM180.09,40l-.83,1.37-.81-.32c.84.55.73,1.41.78,2.19s.08,1.46.13,2.19c.09,1.41.19,2.82.29,4.23.11-1.14,0-2.29,0-3.41C179.81,44.16,179,42,180.09,40Zm-.77,25.27a6.27,6.27,0,0,1-2.63-6.17A5,5,0,0,0,179.32,65.24Zm.23-10.18c.71-.7.74-1.09.16-2.1Z"/></g></g><rect class="cls-1" x="172.51" y="16.04" width="15.94" height="2.5"/><rect class="cls-1" x="175.7" y="54.27" width="13.49" height="2.57"/></g></g></svg>